<?xml version="1.0" encoding="UTF-8"?>
<svg id="_레이어_1" xmlns="http://www.w3.org/2000/svg" version="1.1" viewBox="0 0 216 216">
  <!-- Generator: Adobe Illustrator 29.6.0, SVG Export Plug-In . SVG Version: 2.1.1 Build 207)  -->
  <defs>
    <style>
      .st0 {
        fill: #e78934;
      }

      .st1 {
        fill: #686666;
      }
    </style>
  </defs>
  <g id="LWPOLYLINE">
    <path class="st1" d="M154.12,133.69c2.49-6.76,3.74-13.86,3.74-21.11s-1.25-14.34-3.74-21.11c-2.49-6.76-5.95-12.41-10.52-17.58-4.57-5.17-10.18-9.31-16.41-12.27-2.63-1.24-5.4-2.21-8.17-2.9v-16.48h32.13l40.79,70.42-40.99,70.69h-31.92v-16.9c2.84-.69,5.54-1.66,8.17-2.9,6.23-2.9,11.84-7.11,16.41-12.27,4.57-5.17,8.1-11.1,10.52-17.58h0Z"/>
  </g>
  <g id="LWPOLYLINE-2">
    <path class="st1" d="M101.15,58.79c-2.84.69-5.54,1.66-8.17,2.9-6.23,2.9-11.84,7.11-16.41,12.27-4.57,5.17-8.1,11.1-10.52,17.58-2.42,6.48-3.74,13.86-3.74,21.11s1.25,14.34,3.74,21.11c2.49,6.76,5.95,12.41,10.52,17.58,4.57,5.17,10.18,9.31,16.41,12.27,2.63,1.24,5.4,2.21,8.17,2.9v16.9h-31.92L28.24,112.65l40.79-70.42h32.13v16.55Z"/>
  </g>
  <g id="LWPOLYLINE-3">
    <path class="st0" d="M123.24,151.69c4.5-2.28,8.51-5.38,11.77-9.31,3.26-3.93,5.88-8.48,7.55-13.38,1.87-5.31,2.77-10.9,2.77-16.48,0-2.41-.21-4.83-.55-7.24h-39.88c-1.38,0-2.49-1.1-2.49-2.48v-5.59c0-3.31,2.7-5.93,5.95-5.93h32.2c-1.52-3.03-3.39-5.93-5.54-8.55-3.26-3.86-7.27-7.04-11.77-9.31-4.09-2-8.58-3.1-13.15-3.1s-9.07,1.03-13.15,3.1c-4.5,2.28-8.51,5.38-11.77,9.31s-5.88,8.48-7.55,13.38c-1.87,5.31-2.77,10.9-2.77,16.48,0,2.55.21,5.1.55,7.59h39.82c1.38,0,2.49,1.1,2.49,2.48v5.59c0,3.31-2.7,5.93-5.95,5.93h-31.99c1.45,2.9,3.26,5.66,5.4,8.21,3.26,3.86,7.27,7.04,11.77,9.31,4.09,2,8.58,3.1,13.15,3.1s9.07-1.03,13.15-3.1h0Z"/>
  </g>
</svg>