<?xml version="1.0" encoding="UTF-8"?>
<svg id="_레이어_1" data-name="레이어 1" xmlns="http://www.w3.org/2000/svg" viewBox="0 0 107.03 20.45">
  <defs>
    <style>
      .cls-1 {
        fill: #f2922a;
      }

      .cls-2 {
        fill: #676663;
      }

      .cls-3 {
        fill: #676764;
      }
    </style>
  </defs>
  <g id="LWPOLYLINE">
    <path class="cls-2" d="M18.18,13.26c.36-.98.54-2.01.54-3.06s-.18-2.08-.54-3.06-.86-1.8-1.52-2.55-1.47-1.35-2.37-1.78c-.38-.18-.78-.32-1.18-.42V0h4.64l5.89,10.21-5.92,10.25h-4.61v-2.45c.41-.1.8-.24,1.18-.42.9-.42,1.71-1.03,2.37-1.78s1.17-1.61,1.52-2.55Z"/>
  </g>
  <g id="LWPOLYLINE-2" data-name="LWPOLYLINE">
    <path class="cls-2" d="M10.53,2.4c-.41.1-.8.24-1.18.42-.9.42-1.71,1.03-2.37,1.78s-1.17,1.61-1.52,2.55-.54,2.01-.54,3.06.18,2.08.54,3.06.86,1.8,1.52,2.55,1.47,1.35,2.37,1.78c.38.18.78.32,1.18.42v2.45h-4.61L0,10.21,5.89,0h4.64v2.4Z"/>
  </g>
  <g id="LWPOLYLINE-3" data-name="LWPOLYLINE">
    <path class="cls-1" d="M13.72,15.87c.65-.33,1.23-.78,1.7-1.35s.85-1.23,1.09-1.94c.27-.77.4-1.58.4-2.39,0-.35-.03-.7-.08-1.05h-5.76c-.2,0-.36-.16-.36-.36v-.81c0-.48.39-.86.86-.86h4.65c-.22-.44-.49-.86-.8-1.24-.47-.56-1.05-1.02-1.7-1.35-.59-.29-1.24-.45-1.9-.45s-1.31.15-1.9.45c-.65.33-1.23.78-1.7,1.35s-.85,1.23-1.09,1.94c-.27.77-.4,1.58-.4,2.39,0,.37.03.74.08,1.1h5.75c.2,0,.36.16.36.36v.81c0,.48-.39.86-.86.86h-4.62c.21.42.47.82.78,1.19.47.56,1.05,1.02,1.7,1.35.59.29,1.24.45,1.9.45s1.31-.15,1.9-.45Z"/>
  </g>
  <g>
    <path class="cls-3" d="M29.16,1.18h3.69v7.25h7.05V1.18h3.72v17.84h-3.72v-7.77h-7.05v7.77h-3.69V1.18Z"/>
    <path class="cls-3" d="M52.04,1.18h3.85l6.27,17.84h-3.8l-1.48-4.26h-6.34l-1.46,4.26h-3.38L52.04,1.18ZM51.37,12.13h4.65l-2.31-6.76h-.1l-2.24,6.76Z"/>
    <path class="cls-3" d="M64.24,1.18h4.13l6.89,11.86h.08V1.18h3.25v17.84h-3.64l-7.38-12.79h-.08v12.79h-3.25V1.18Z"/>
    <path class="cls-3" d="M81.37,18.21v-2.83c1.46.62,3.15,1.09,5.12,1.09,2.26,0,3.25-.94,3.25-2.34s-.6-1.92-2.5-2.42l-1.61-.42c-2.57-.68-4.21-1.92-4.21-5.23,0-3.07,2-5.17,6.11-5.17,2.5,0,3.85.44,4.89.96v2.78c-1.2-.42-2.65-.91-4.65-.91-1.82,0-2.81.73-2.81,2.08,0,1.25.57,1.79,2.26,2.24l1.56.42c2.91.78,4.6,1.98,4.6,5.28,0,3.48-2.16,5.56-6.55,5.56-2.39,0-4.21-.44-5.46-1.09Z"/>
    <path class="cls-3" d="M96.01,1.18h3.69v15h7.33v2.83h-11.02V1.18Z"/>
  </g>
</svg>